HIERARCHY
ROOT Hips
{
	OFFSET	0.000000	0.000000	0.000000
	CHANNELS	6	Xposition	Yposition	Zposition	Zrotation	Xrotation	Yrotation
	JOINT LeftHip
	{
		OFFSET	15.500000	-8.200000	0.000000
		CHANNELS	3	Zrotation	Xrotation	Yrotation
		JOINT LeftKnee
		{
			OFFSET	0.000000	-41.000000	0.000000
			CHANNELS	3	Zrotation	Xrotation	Yrotation
			JOINT LeftAnkle
			{
				OFFSET	0.000000	-41.500000	0.000000
				CHANNELS	3	Zrotation	Xrotation	Yrotation
				End Site
				{
					OFFSET	0.000000	0.000000	22.875000
				}
			}
		}
	}
	JOINT RightHip
	{
		OFFSET	-15.500000	-8.200000	0.000000
		CHANNELS	3	Zrotation	Xrotation	Yrotation
		JOINT RightKnee
		{
			OFFSET	0.000000	-41.000000	0.000000
			CHANNELS	3	Zrotation	Xrotation	Yrotation
			JOINT RightAnkle
			{
				OFFSET	0.000000	-41.500000	0.000000
				CHANNELS	3	Zrotation	Xrotation	Yrotation
				End Site
				{
					OFFSET	0.000000	0.000000	22.875000
				}
			}
		}
	}
	JOINT Chest
	{
		OFFSET	0.000000	16.666667	0.000000
		CHANNELS	3	Zrotation	Xrotation	Yrotation
		JOINT LeftCollar
		{
			OFFSET	4.625000	33.333333	1.541667
			CHANNELS	3	Zrotation	Xrotation	Yrotation
			JOINT LeftShoulder
			{
				OFFSET	13.875000	0.000000	0.000000
				CHANNELS	3	Zrotation	Xrotation	Yrotation
				JOINT LeftElbow
				{
					OFFSET	0.000000	-28.000000	0.000000
					CHANNELS	3	Zrotation	Xrotation	Yrotation
					JOINT LeftWrist
					{
						OFFSET	0.000000	-25.000000	0.000000
						CHANNELS	3	Zrotation	Xrotation	Yrotation
						End Site
						{
							OFFSET	0.000000	-7.500000	0.000000
						}
					}
				}
			}
		}
		JOINT RightCollar
		{
			OFFSET	-4.625000	33.333333	1.541667
			CHANNELS	3	Zrotation	Xrotation	Yrotation
			JOINT RightShoulder
			{
				OFFSET	-13.875000	0.000000	0.000000
				CHANNELS	3	Zrotation	Xrotation	Yrotation
				JOINT RightElbow
				{
					OFFSET	0.000000	-28.000000	0.000000
					CHANNELS	3	Zrotation	Xrotation	Yrotation
					JOINT RightWrist
					{
						OFFSET	0.000000	-25.000000	0.000000
						CHANNELS	3	Zrotation	Xrotation	Yrotation
						End Site
						{
							OFFSET	0.000000	-7.500000	0.000000
						}
					}
				}
			}
		}
		JOINT Neck
		{
			OFFSET	0.000000	33.333333	0.000000
			CHANNELS	3	Zrotation	Xrotation	Yrotation
			JOINT Head
			{
				OFFSET	0.000000	12.000000	0.000000
				CHANNELS	3	Zrotation	Xrotation	Yrotation
				End Site
				{
					OFFSET	0.000000	15.000000	0.000000
				}
			}
		}
	}
}
MOTION
Frames:	28
Frame Time:	0.012000
-27.32	103.97	-54.99	-0.30	0.03	3.59	1.30	-7.95	-7.39	-1.63	5.49	4.84	3.16	26.05	-1.13	-1.00	-0.15	3.74	1.99	4.73	-3.04	-4.55	29.88	5.57	-0.12	-0.86	-1.33	0.00	0.00	0.00	4.33	-16.11	28.27	-10.17	-1.24	5.09	0.08	-0.76	0.00	0.00	0.00	0.00	-4.78	-30.40	-39.30	2.27	3.49	11.15	4.07	1.66	0.00	0.00	0.00	0.00	-4.29	4.39	-4.62
-27.31	103.97	-54.98	-0.30	0.03	3.59	1.30	-7.95	-7.39	-1.63	5.49	4.84	3.16	26.05	-1.13	-1.00	-0.14	3.74	1.99	4.73	-3.04	-4.55	29.91	5.57	-0.12	-0.86	-1.33	0.00	0.00	0.00	4.33	-16.11	28.27	-10.17	-1.24	5.09	0.08	-0.76	0.00	0.00	0.00	0.00	-4.78	-30.40	-39.30	2.27	3.49	11.15	4.07	1.66	0.00	0.00	0.00	0.00	-4.29	4.39	-4.62
-27.31	103.97	-54.97	-0.31	0.01	3.59	1.30	-7.96	-7.39	-1.63	5.49	4.84	3.16	26.04	-1.12	-0.99	-0.14	3.73	1.98	4.73	-3.04	-4.55	29.91	5.56	-0.11	-0.86	-1.32	0.00	0.00	0.00	4.33	-16.11	28.28	-10.17	-1.25	5.10	0.08	-0.77	0.00	0.00	0.00	0.00	-4.78	-30.42	-39.31	2.26	3.53	11.04	4.07	1.66	0.00	0.00	0.00	0.00	-4.27	4.44	-4.61
-27.29	103.97	-54.99	-0.31	0.01	3.59	1.30	-7.97	-7.39	-1.63	5.49	4.84	3.15	26.03	-1.10	-0.99	-0.14	3.73	1.99	4.73	-3.04	-4.54	29.89	5.57	-0.11	-0.86	-1.31	0.00	0.00	0.00	4.34	-16.11	28.27	-10.17	-1.27	5.10	0.07	-0.77	0.00	0.00	0.00	0.00	-4.77	-30.42	-39.31	2.26	3.52	11.02	4.07	1.65	0.00	0.00	0.00	0.00	-4.28	4.44	-4.61
-27.30	103.97	-55.00	-0.31	0.01	3.59	1.29	-8.01	-7.37	-1.63	5.52	4.84	3.17	26.06	-1.09	-0.99	-0.14	3.72	1.98	4.74	-3.04	-4.52	29.88	5.56	-0.10	-0.86	-1.31	0.00	0.00	0.00	4.34	-16.12	28.26	-10.17	-1.28	5.10	0.06	-0.77	0.00	0.00	0.00	0.00	-4.76	-30.42	-39.33	2.25	3.50	11.00	4.07	1.65	0.00	0.00	0.00	0.00	-4.28	4.45	-4.62
-27.30	103.97	-55.00	-0.32	0.01	3.58	1.29	-8.02	-7.38	-1.63	5.53	4.84	3.16	26.03	-1.09	-0.97	-0.14	3.69	1.96	4.76	-3.04	-4.54	29.91	5.55	-0.10	-0.86	-1.31	0.00	0.00	0.00	4.35	-16.12	28.26	-10.17	-1.26	5.12	0.05	-0.77	0.00	0.00	0.00	0.00	-4.76	-30.44	-39.33	2.25	3.51	11.00	4.08	1.65	0.00	0.00	0.00	0.00	-4.25	4.44	-4.59
-27.28	103.98	-54.97	-0.32	0.01	3.58	1.30	-8.03	-7.39	-1.63	5.53	4.84	3.18	26.03	-1.10	-0.98	-0.13	3.70	1.97	4.75	-3.04	-4.53	29.93	5.54	-0.10	-0.86	-1.30	0.00	0.00	0.00	4.39	-16.13	28.30	-10.18	-1.25	5.12	0.05	-0.76	0.00	0.00	0.00	0.00	-4.76	-30.43	-39.32	2.26	3.51	10.99	4.08	1.65	0.00	0.00	0.00	0.00	-4.25	4.44	-4.59
-27.28	103.98	-54.95	-0.32	0.01	3.58	1.29	-8.03	-7.37	-1.63	5.53	4.84	3.17	26.00	-1.11	-0.98	-0.13	3.70	1.97	4.75	-3.04	-4.54	29.94	5.54	-0.10	-0.87	-1.30	0.00	0.00	0.00	4.39	-16.14	28.29	-10.17	-1.24	5.13	0.04	-0.76	0.00	0.00	0.00	0.00	-4.75	-30.43	-39.31	2.26	3.49	10.99	4.09	1.66	0.00	0.00	0.00	0.00	-4.25	4.45	-4.59
-27.27	103.98	-54.94	-0.35	0.02	3.57	1.30	-8.03	-7.40	-1.63	5.48	4.84	3.17	26.02	-1.11	-0.95	-0.12	3.62	1.93	4.83	-3.04	-4.53	29.94	5.57	-0.10	-0.87	-1.29	0.00	0.00	0.00	4.40	-16.12	28.28	-10.17	-1.26	5.13	0.04	-0.76	0.00	0.00	0.00	0.00	-4.73	-30.44	-39.30	2.25	3.49	11.00	4.08	1.65	0.00	0.00	0.00	0.00	-4.23	4.44	-4.61
-27.19	103.99	-54.85	-0.35	0.02	3.57	1.30	-8.03	-7.40	-1.63	5.48	4.84	3.18	26.05	-1.10	-0.96	-0.12	3.63	1.94	4.84	-3.04	-4.52	29.96	5.56	-0.10	-0.87	-1.29	0.00	0.00	0.00	4.39	-16.12	28.28	-10.17	-1.25	5.14	0.04	-0.76	0.00	0.00	0.00	0.00	-4.78	-30.48	-39.31	2.27	3.64	11.11	4.06	1.67	0.00	0.00	0.00	0.00	-4.22	4.43	-4.61
-27.19	103.99	-54.84	-0.35	0.02	3.57	1.30	-8.01	-7.43	-1.63	5.44	4.84	3.19	26.05	-1.11	-0.96	-0.14	3.61	1.93	4.85	-3.04	-4.51	29.96	5.56	-0.11	-0.86	-1.29	0.00	0.00	0.00	4.38	-16.13	28.29	-10.16	-1.26	5.14	0.05	-0.76	0.00	0.00	0.00	0.00	-4.80	-30.47	-39.32	2.30	3.65	11.12	4.05	1.67	0.00	0.00	0.00	0.00	-4.21	4.43	-4.62
-27.18	104.00	-54.85	-0.34	-0.01	3.57	1.30	-8.02	-7.43	-1.63	5.44	4.84	3.21	26.09	-1.12	-0.96	-0.13	3.61	1.92	4.84	-3.04	-4.50	29.94	5.53	-0.11	-0.86	-1.28	0.00	0.00	0.00	4.38	-16.14	28.28	-10.15	-1.26	5.13	0.05	-0.76	0.00	0.00	0.00	0.00	-4.79	-30.46	-39.31	2.29	3.67	11.12	4.05	1.67	0.00	0.00	0.00	0.00	-4.22	4.46	-4.62
-27.19	104.00	-54.91	-0.34	-0.01	3.57	1.30	-8.02	-7.42	-1.63	5.44	4.84	3.21	26.07	-1.13	-0.95	-0.14	3.59	1.91	4.84	-3.04	-4.51	29.93	5.55	-0.10	-0.86	-1.29	0.00	0.00	0.00	4.38	-16.13	28.28	-10.17	-1.27	5.13	0.04	-0.77	0.00	0.00	0.00	0.00	-4.73	-30.42	-39.27	2.28	3.53	11.00	4.08	1.65	0.00	0.00	0.00	0.00	-4.22	4.45	-4.61
-27.17	104.01	-54.93	-0.34	-0.01	3.57	1.30	-8.02	-7.42	-1.63	5.44	4.84	3.20	26.07	-1.13	-0.96	-0.13	3.59	1.91	4.84	-3.04	-4.51	29.92	5.54	-0.11	-0.85	-1.29	0.00	0.00	0.00	4.37	-16.13	28.28	-10.17	-1.24	5.10	0.03	-0.76	0.00	0.00	0.00	0.00	-4.75	-30.41	-39.26	2.30	3.53	10.99	4.09	1.65	0.00	0.00	0.00	0.00	-4.21	4.44	-4.61
-27.17	104.01	-54.92	-0.33	0.00	3.58	1.29	-8.06	-7.38	-1.63	5.44	4.84	3.19	26.03	-1.13	-0.96	-0.14	3.59	1.90	4.84	-3.04	-4.52	29.94	5.56	-0.12	-0.84	-1.30	0.00	0.00	0.00	4.35	-16.11	28.28	-10.17	-1.25	5.09	0.03	-0.75	0.00	0.00	0.00	0.00	-4.77	-30.40	-39.26	2.32	3.52	10.98	4.10	1.66	0.00	0.00	0.00	0.00	-4.20	4.44	-4.64
-27.19	104.01	-54.92	-0.33	0.00	3.58	1.29	-8.06	-7.37	-1.63	5.44	4.84	3.19	26.04	-1.12	-0.96	-0.13	3.58	1.90	4.85	-3.04	-4.54	29.95	5.56	-0.12	-0.84	-1.30	0.00	0.00	0.00	4.36	-16.12	28.28	-10.18	-1.23	5.09	0.03	-0.75	0.00	0.00	0.00	0.00	-4.76	-30.40	-39.23	2.31	3.50	10.99	4.09	1.65	0.00	0.00	0.00	0.00	-4.20	4.44	-4.64
-27.17	104.02	-54.89	-0.33	0.00	3.58	1.29	-8.05	-7.36	-1.63	5.44	4.84	3.19	26.03	-1.12	-0.96	-0.13	3.56	1.89	4.88	-3.04	-4.55	29.94	5.54	-0.11	-0.82	-1.31	0.00	0.00	0.00	4.39	-16.10	28.27	-10.23	-1.20	5.11	0.02	-0.75	0.00	0.00	0.00	0.00	-4.74	-30.39	-39.24	2.30	3.51	10.98	4.10	1.66	0.00	0.00	0.00	0.00	-4.21	4.42	-4.63
-27.15	104.02	-54.88	-0.33	-0.01	3.58	1.29	-8.06	-7.35	-1.63	5.47	4.84	3.17	26.02	-1.13	-0.97	-0.13	3.58	1.90	4.85	-3.04	-4.54	29.93	5.53	-0.11	-0.81	-1.32	0.00	0.00	0.00	4.37	-16.08	28.28	-10.23	-1.19	5.11	0.01	-0.75	0.00	0.00	0.00	0.00	-4.75	-30.38	-39.24	2.32	3.51	10.98	4.10	1.66	0.00	0.00	0.00	0.00	-4.16	4.42	-4.60
-27.14	104.02	-54.92	-0.33	-0.01	3.58	1.29	-8.06	-7.35	-1.63	5.47	4.84	3.17	26.03	-1.13	-0.97	-0.13	3.57	1.90	4.85	-3.04	-4.54	29.91	5.52	-0.11	-0.80	-1.33	0.00	0.00	0.00	4.34	-16.06	28.23	-10.25	-1.19	5.11	0.00	-0.76	0.00	0.00	0.00	0.00	-4.75	-30.37	-39.24	2.31	3.52	10.97	4.12	1.67	0.00	0.00	0.00	0.00	-4.17	4.41	-4.59
-27.14	104.02	-54.93	-0.33	-0.01	3.58	1.30	-8.04	-7.35	-1.64	5.49	4.84	3.17	26.05	-1.12	-0.98	-0.13	3.58	1.91	4.84	-3.04	-4.54	29.89	5.54	-0.11	-0.79	-1.34	0.00	0.00	0.00	4.32	-16.03	28.23	-10.25	-1.23	5.13	0.00	-0.75	0.00	0.00	0.00	0.00	-4.76	-30.35	-39.23	2.32	3.52	10.97	4.13	1.67	0.00	0.00	0.00	0.00	-4.16	4.40	-4.58
-27.14	104.02	-54.93	-0.33	0.00	3.58	1.29	-8.04	-7.34	-1.64	5.50	4.84	3.18	26.06	-1.13	-1.01	-0.14	3.62	1.93	4.82	-3.04	-4.55	29.89	5.54	-0.12	-0.78	-1.34	0.00	0.00	0.00	4.32	-16.02	28.24	-10.27	-1.16	5.08	0.00	-0.75	0.00	0.00	0.00	0.00	-4.76	-30.34	-39.23	2.33	3.51	10.94	4.14	1.67	0.00	0.00	0.00	0.00	-4.13	4.37	-4.60
-27.13	104.02	-54.96	-0.33	0.00	3.58	1.28	-8.06	-7.33	-1.63	5.51	4.84	3.19	26.03	-1.13	-1.01	-0.14	3.62	1.93	4.82	-3.04	-4.56	29.86	5.55	-0.12	-0.78	-1.35	0.00	0.00	0.00	4.35	-16.01	28.25	-10.29	-1.16	5.09	0.00	-0.75	0.00	0.00	0.00	0.00	-4.76	-30.34	-39.23	2.33	3.51	10.93	4.14	1.65	0.00	0.00	0.00	0.00	-4.13	4.36	-4.59
-27.13	104.01	-54.97	-0.33	0.00	3.58	1.28	-8.06	-7.33	-1.63	5.51	4.84	3.18	26.01	-1.14	-1.01	-0.15	3.61	1.93	4.82	-3.04	-4.58	29.88	5.56	-0.12	-0.77	-1.36	0.00	0.00	0.00	4.35	-15.98	28.25	-10.30	-1.19	5.08	0.00	-0.75	0.00	0.00	0.00	0.00	-4.76	-30.34	-39.21	2.33	3.51	10.94	4.13	1.65	0.00	0.00	0.00	0.00	-4.13	4.36	-4.58
-27.11	104.01	-54.97	-0.31	-0.01	3.56	1.29	-8.05	-7.35	-1.64	5.53	4.84	3.19	26.04	-1.12	-1.01	-0.14	3.60	1.92	4.82	-3.04	-4.59	29.87	5.57	-0.12	-0.76	-1.36	0.00	0.00	0.00	4.34	-15.95	28.26	-10.31	-1.18	5.09	0.00	-0.75	0.00	0.00	0.00	0.00	-4.78	-30.34	-39.21	2.36	3.52	10.93	4.13	1.64	0.00	0.00	0.00	0.00	-4.13	4.36	-4.56
-27.11	104.01	-54.98	-0.31	-0.01	3.56	1.29	-8.04	-7.35	-1.64	5.53	4.84	3.21	26.05	-1.13	-1.02	-0.13	3.60	1.93	4.82	-3.04	-4.58	29.91	5.56	-0.13	-0.74	-1.36	0.00	0.00	0.00	4.34	-15.93	28.28	-10.31	-1.20	5.10	0.00	-0.76	0.00	0.00	0.00	0.00	-4.79	-30.33	-39.22	2.38	3.50	10.92	4.12	1.65	0.00	0.00	0.00	0.00	-4.12	4.35	-4.56
-27.10	104.01	-54.95	-0.31	-0.01	3.56	1.28	-8.04	-7.34	-1.64	5.55	4.84	3.21	26.08	-1.14	-1.03	-0.12	3.62	1.94	4.80	-3.04	-4.59	29.91	5.57	-0.13	-0.73	-1.36	0.00	0.00	0.00	4.35	-15.91	28.29	-10.31	-1.25	5.09	0.03	-0.78	0.00	0.00	0.00	0.00	-4.78	-30.33	-39.21	2.38	3.51	10.90	4.13	1.65	0.00	0.00	0.00	0.00	-4.12	4.34	-4.56
-27.10	104.00	-54.95	-0.31	-0.01	3.56	1.29	-8.02	-7.37	-1.65	5.57	4.84	3.22	26.08	-1.15	-1.04	-0.11	3.63	1.94	4.79	-3.04	-4.58	29.91	5.56	-0.12	-0.72	-1.36	0.00	0.00	0.00	4.36	-15.89	28.31	-10.33	-1.32	5.15	0.11	-0.85	0.00	0.00	0.00	0.00	-4.77	-30.33	-39.19	2.39	3.50	10.89	4.12	1.65	0.00	0.00	0.00	0.00	-4.14	4.30	-4.57
-27.09	104.00	-54.95	-0.31	-0.01	3.56	1.29	-8.02	-7.38	-1.65	5.58	4.84	3.19	26.07	-1.12	-1.05	-0.11	3.63	1.95	4.79	-3.04	-4.58	29.91	5.53	-0.14	-0.71	-1.37	0.00	0.00	0.00	4.34	-15.86	28.34	-10.31	-1.34	5.16	0.11	-0.84	0.00	0.00	0.00	0.00	-4.82	-30.31	-39.20	2.43	3.52	10.88	4.11	1.65	0.00	0.00	0.00	0.00	-4.12	4.29	-4.57
